Coordinates
version=1
nRows=19
nColumns=18
inDegrees=yes

Units are S.I. units (second, meters, Newtons, ...)
If the header above contains a line with 'inDegrees', this indicates whether rotational values are in degrees (yes) or radians (no).

endheader
time	ground_thorax_rot_x	ground_thorax_rot_y	ground_thorax_rot_z	ground_thorax_tx	ground_thorax_ty	ground_thorax_tz	clav_prot	clav_elev	scapula_abduction	scapula_elevation	scapula_upward_rot	scapula_winging	plane_elv	shoulder_elv	axial_rot	elbow_flexion	pro_sup
      2.78000000	      1.15970606	     -2.69784728	     -7.37196872	     -0.00496869	      0.00713926	     -0.00168547	    -37.40243207	      5.34059494	    -35.30378853	      0.04189393	     21.05083069	     -2.28948050	     37.16326121	      6.52734639	     -3.28020256	      0.00000000	     34.32000000
      2.79000000	      1.15909888	     -2.69716026	     -7.37157714	     -0.00486566	      0.00720470	     -0.00172856	    -37.40231827	      5.34062112	    -35.30349652	      0.04186049	     21.05110144	     -2.28944687	     37.16339295	      6.52748991	     -3.28021462	      0.00000000	     34.32000000
      2.80000000	      1.13543567	     -2.68162632	     -7.36101711	     -0.00490735	      0.00723116	     -0.00178859	    -37.40144876	      5.34225593	    -35.29728793	      0.04110221	     21.05957545	     -2.29177325	     37.16700780	      6.53313251	     -3.28154902	      0.00000000	     34.32000000
      2.81000000	      1.13568997	     -2.68199923	     -7.36116249	     -0.00493419	      0.00725644	     -0.00184091	    -37.40136139	      5.34239285	    -35.29752770	      0.04132203	     21.05910658	     -2.29162130	     37.16706041	      6.53267457	     -3.28160603	      0.00000000	     34.32000000
      2.82000000	      1.14834742	     -2.68114386	     -7.34645351	     -0.00493976	      0.00731941	     -0.00193651	    -37.39098607	      5.33708068	    -35.29899746	      0.04544856	     21.02962481	     -2.27734055	     37.17406076	      6.50822242	     -3.28419766	      0.00000000	     34.32000000
      2.83000000	      1.14933623	     -2.68165824	     -7.34553623	     -0.00492059	      0.00724457	     -0.00209217	    -37.39086561	      5.33652568	    -35.29919338	      0.04531538	     21.02861593	     -2.27690115	     37.17430255	      6.50733326	     -3.28425003	      0.00000000	     34.32000000
      2.84000000	      1.15745679	     -2.68672105	     -7.30695726	     -0.00501470	      0.00722419	     -0.00202934	    -37.38610010	      5.31058706	    -35.29787245	      0.03321701	     21.00214163	     -2.26253682	     37.18593731	      6.50085652	     -3.28403355	      0.00000000	     34.32000000
      2.85000000	      1.15750543	     -2.68793734	     -7.30702988	     -0.00510189	      0.00712196	     -0.00193664	    -37.38646020	      5.31026301	    -35.29842076	      0.03299288	     21.00196049	     -2.26253998	     37.18594800	      6.50154985	     -3.28391819	      0.00000000	     34.32000000
      2.86000000	      1.17004909	     -2.74195980	     -7.31445881	     -0.00509512	      0.00710795	     -0.00179341	    -37.39707122	      5.30669102	    -35.32405241	      0.03343947	     20.98517451	     -2.26201126	     37.18615093	      6.50702264	     -3.28146065	      0.00000000	     34.32000000
      2.87000000	      1.17008365	     -2.74247845	     -7.31427029	     -0.00513442	      0.00712285	     -0.00182793	    -37.39711793	      5.30648160	    -35.32412006	      0.03331550	     20.98503796	     -2.26195673	     37.18625043	      6.50704719	     -3.28142939	      0.00000000	     34.32000000
      2.88000000	      1.17245653	     -2.74237173	     -7.27299097	     -0.00519846	      0.00716606	     -0.00184604	    -37.39171224	      5.27293142	    -35.30451657	      0.01069701	     20.97960912	     -2.25194672	     37.19922217	      6.51993188	     -3.27686738	      0.00000000	     34.32000000
      2.89000000	      1.17333399	     -2.74175850	     -7.27193593	     -0.00513458	      0.00702669	     -0.00179585	    -37.39154959	      5.27199283	    -35.30403042	      0.01009391	     20.97933762	     -2.25162651	     37.19938924	      6.52017279	     -3.27677688	      0.00000000	     34.32000000
      2.90000000	      1.26161488	     -2.80383136	     -7.36608748	     -0.00504198	      0.00706756	     -0.00168065	    -37.35692848	      5.11712302	    -35.25347811	     -0.07379136	     20.87219655	     -2.17699732	     37.26228236	      6.77527598	     -3.18907603	      0.00000000	     34.32000000
      2.91000000	      1.25020621	     -2.80421426	     -7.36084788	     -0.00507683	      0.00697535	     -0.00154953	    -37.36093289	      5.10969010	    -35.24780231	     -0.08264378	     20.88500229	     -2.18119668	     37.26326234	      6.80272670	     -3.18460049	      0.00000000	     34.32000000
      2.92000000	      1.23474573	     -2.81071091	     -7.34977396	     -0.00519581	      0.00690984	     -0.00142854	    -37.37221059	      5.09978491	    -35.24033150	     -0.09825165	     20.91561295	     -2.19345496	     37.26058964	      6.84802379	     -3.18026584	      0.00000000	     34.32000000
      2.93000000	      1.31436506	     -2.90154506	     -7.33220472	     -0.00524653	      0.00705219	     -0.00121565	    -37.39990931	      5.05645184	    -35.22889888	     -0.14459057	     20.96701535	     -2.21350155	     37.23271498	      6.96675785	     -3.17250981	      0.00000000	     34.32000000
      2.94000000	      1.28228316	     -2.89935604	     -7.33433343	     -0.00534580	      0.00707680	     -0.00118102	    -37.40162756	      5.06326811	    -35.21535703	     -0.14684108	     20.99645653	     -2.22359833	     37.22954736	      7.01030847	     -3.17026268	      0.00000000	     34.32000000
      2.95000000	      1.24891225	     -2.86193265	     -7.31789273	     -0.00533711	      0.00726949	     -0.00120214	    -37.38874734	      5.06729577	    -35.17896480	     -0.14944503	     21.02456352	     -2.22641724	     37.23172064	      7.06619582	     -3.16977781	      0.00000000	     34.32000000
      2.96000000	      1.23565963	     -2.73376992	     -7.27846365	     -0.00538457	      0.00746800	     -0.00135315	    -37.30804287	      5.08539343	    -35.07099654	     -0.12649519	     21.01450333	     -2.18951060	     37.24956187	      7.17208039	     -3.17821245	      0.00000000	     34.32000000
